<svg xmlns="http://www.w3.org/2000/svg" xmlns:xlink="http://www.w3.org/1999/xlink" width="500" zoomAndPan="magnify" viewBox="0 0 375 374.999991" height="500" preserveAspectRatio="xMidYMid meet" version="1.0"><defs><g/><clipPath id="d721fcfaeb"><path d="M 26.25 0 L 348.75 0 C 355.710938 0 362.390625 2.765625 367.3125 7.6875 C 372.234375 12.609375 375 19.289062 375 26.25 L 375 348.75 C 375 355.710938 372.234375 362.390625 367.3125 367.3125 C 362.390625 372.234375 355.710938 375 348.75 375 L 26.25 375 C 19.289062 375 12.609375 372.234375 7.6875 367.3125 C 2.765625 362.390625 0 355.710938 0 348.75 L 0 26.25 C 0 19.289062 2.765625 12.609375 7.6875 7.6875 C 12.609375 2.765625 19.289062 0 26.25 0 Z M 26.25 0 " clip-rule="nonzero"/></clipPath></defs><g clip-path="url(#d721fcfaeb)"><rect x="-37.5" width="450" fill="#000000" y="-37.499999" height="449.999989" fill-opacity="1"/></g><g fill="#ffffff" fill-opacity="1"><g transform="translate(69.45589, 319.642191)"><g><path d="M 107.265625 -103.640625 L 79.546875 -73.734375 L 79.546875 0 L 22.640625 0 L 22.640625 -263.796875 L 79.546875 -263.796875 L 79.546875 -145.671875 L 102.90625 -178.640625 L 167.40625 -263.796875 L 237.34375 -263.796875 L 145.125 -146.765625 L 239.34375 0 L 171.9375 0 Z M 107.265625 -103.640625 "/></g></g></g></svg>