<svg xmlns="http://www.w3.org/2000/svg" xmlns:xlink="http://www.w3.org/1999/xlink" width="48" zoomAndPan="magnify" viewBox="0 0 36 30.000001" height="40" preserveAspectRatio="xMidYMid meet" version="1.0"><defs><clipPath id="89ca24f494"><path d="M 0.582031 0 L 35.417969 0 L 35.417969 5.78125 L 0.582031 5.78125 Z M 0.582031 0 " clip-rule="nonzero"/></clipPath><clipPath id="891c9604fa"><path d="M 0.582031 11.425781 L 35.417969 11.425781 L 35.417969 17.34375 L 0.582031 17.34375 Z M 0.582031 11.425781 " clip-rule="nonzero"/></clipPath><clipPath id="ad380040de"><path d="M 0.582031 23 L 35.417969 23 L 35.417969 28.789062 L 0.582031 28.789062 Z M 0.582031 23 " clip-rule="nonzero"/></clipPath></defs><g clip-path="url(#89ca24f494)"><path fill="#ffffff" d="M 32.539062 5.757812 L 3.460938 5.757812 C 1.871094 5.757812 0.582031 4.46875 0.582031 2.878906 C 0.582031 1.289062 1.871094 0 3.460938 0 L 32.539062 0 C 34.128906 0 35.417969 1.289062 35.417969 2.878906 C 35.417969 4.46875 34.128906 5.757812 32.539062 5.757812 " fill-opacity="1" fill-rule="nonzero"/></g><g clip-path="url(#891c9604fa)"><path fill="#ffffff" d="M 32.539062 17.273438 L 3.460938 17.273438 C 1.871094 17.273438 0.582031 15.984375 0.582031 14.394531 C 0.582031 12.804688 1.871094 11.515625 3.460938 11.515625 L 32.539062 11.515625 C 34.128906 11.515625 35.417969 12.804688 35.417969 14.394531 C 35.417969 15.984375 34.128906 17.273438 32.539062 17.273438 " fill-opacity="1" fill-rule="nonzero"/></g><g clip-path="url(#ad380040de)"><path fill="#ffffff" d="M 32.539062 28.789062 L 3.460938 28.789062 C 1.871094 28.789062 0.582031 27.5 0.582031 25.910156 C 0.582031 24.320312 1.871094 23.03125 3.460938 23.03125 L 32.539062 23.03125 C 34.128906 23.03125 35.417969 24.320312 35.417969 25.910156 C 35.417969 27.5 34.128906 28.789062 32.539062 28.789062 " fill-opacity="1" fill-rule="nonzero"/></g></svg>