<svg xmlns="http://www.w3.org/2000/svg" xmlns:xlink="http://www.w3.org/1999/xlink" width="500" zoomAndPan="magnify" viewBox="0 0 375 213.75" height="285" preserveAspectRatio="xMidYMid meet" version="1.0"><defs><clipPath id="121658a178"><path d="M 0.21875 0 L 311 0 L 311 212 L 0.21875 212 Z M 0.21875 0 " clip-rule="nonzero"/></clipPath><clipPath id="6575a408e8"><path d="M 275 97 L 374.78125 97 L 374.78125 132 L 275 132 Z M 275 97 " clip-rule="nonzero"/></clipPath></defs><g clip-path="url(#121658a178)"><path fill="#000000" d="M 122.0625 143.214844 C 119.859375 142.773438 117.65625 142.332031 114.128906 141.671875 C 116.113281 144.316406 117.214844 145.859375 118.976562 148.0625 C 114.351562 146.300781 112.148438 140.128906 106.417969 143.433594 C 106.199219 141.453125 106.199219 139.910156 106.199219 138.589844 C 104.875 137.707031 103.554688 136.824219 102.011719 135.945312 C 99.148438 133.742188 96.28125 131.539062 93.199219 129.335938 C 98.046875 129.335938 103.996094 126.027344 105.757812 133.078125 C 114.351562 133.078125 122.28125 133.078125 130.214844 133.078125 C 130.65625 134.621094 130.875 135.503906 131.316406 137.046875 C 132.859375 135.503906 133.960938 134.402344 134.839844 133.300781 C 136.824219 133.519531 138.808594 134.179688 140.789062 134.179688 C 145.636719 134.402344 150.484375 133.960938 155.332031 134.621094 C 157.753906 135.0625 160.621094 136.824219 161.722656 138.808594 C 163.925781 142.773438 166.347656 141.453125 168.332031 139.691406 C 174.5 133.742188 181.332031 133.300781 188.820312 136.382812 C 190.144531 137.046875 191.90625 136.605469 194.332031 136.824219 C 191.6875 139.691406 189.484375 142.332031 186.398438 145.636719 C 188.382812 145.859375 189.484375 146.078125 190.585938 146.078125 C 196.09375 145.417969 201.601562 144.535156 207.109375 144.316406 C 211.074219 144.097656 213.71875 142.113281 214.378906 138.367188 C 215.042969 135.0625 216.804688 133.300781 219.667969 131.757812 C 221.210938 131.097656 222.3125 129.554688 223.632812 128.671875 C 227.160156 126.691406 230.683594 125.367188 235.3125 125.589844 C 242.140625 125.589844 248.75 128.894531 255.582031 127.570312 C 263.292969 126.027344 271.003906 125.808594 277.394531 120.300781 C 281.359375 116.996094 286.207031 114.792969 290.613281 112.148438 C 292.378906 111.046875 294.359375 110.605469 296.785156 109.726562 C 297.886719 111.707031 298.765625 113.25 299.867188 115.234375 C 300.308594 115.234375 300.75 115.234375 301.410156 115.234375 C 303.394531 114.792969 305.597656 114.570312 307.582031 113.691406 C 308.683594 113.25 310.003906 111.929688 310.222656 110.828125 C 310.445312 109.945312 309.121094 108.621094 308.460938 107.519531 C 307.800781 106.640625 307.359375 105.757812 306.257812 103.996094 C 304.273438 104.4375 301.191406 105.097656 298.328125 105.980469 C 296.121094 106.640625 294.582031 106.859375 293.699219 104.214844 C 292.816406 104.878906 291.9375 105.316406 290.835938 106.199219 C 289.511719 103.554688 288.191406 101.351562 286.648438 98.488281 C 284.445312 100.472656 282.902344 101.792969 281.140625 103.335938 C 278.496094 101.574219 275.632812 99.589844 272.546875 97.386719 C 273.429688 96.945312 274.53125 96.0625 276.292969 94.960938 C 272.328125 91.21875 267.921875 89.234375 262.632812 89.894531 C 259.769531 90.335938 256.683594 89.894531 253.820312 90.113281 C 250.734375 90.335938 249.414062 92.097656 250.074219 96.0625 C 255.140625 92.757812 260.210938 93.859375 265.277344 94.960938 C 265.71875 94.960938 265.9375 96.726562 266.378906 98.265625 C 265.054688 98.488281 263.953125 98.929688 263.074219 98.707031 C 258.886719 97.386719 255.582031 98.265625 252.71875 101.792969 C 257.785156 104.4375 256.242188 107.960938 254.039062 111.707031 C 255.140625 111.929688 256.023438 112.148438 257.34375 112.367188 C 256.023438 114.351562 254.921875 115.894531 253.820312 117.214844 C 253.378906 116.996094 252.9375 116.996094 252.496094 116.773438 C 252.71875 113.25 252.9375 109.726562 253.378906 106.417969 C 252.9375 106.417969 252.058594 106.199219 251.175781 106.199219 C 251.835938 104.65625 252.277344 103.335938 252.71875 102.011719 C 251.617188 98.488281 248.75 97.386719 245.667969 96.503906 C 245.226562 94.523438 244.785156 92.539062 244.125 90.777344 C 243.683594 90.777344 243.242188 90.777344 243.023438 90.777344 C 242.804688 92.980469 242.363281 94.960938 242.140625 97.828125 C 239.71875 97.605469 237.515625 97.386719 235.089844 97.164062 C 235.089844 96.726562 235.089844 96.0625 235.089844 95.625 C 237.074219 95.402344 239.058594 94.960938 241.261719 94.523438 C 239.277344 91.4375 237.074219 89.894531 233.550781 90.117188 C 230.464844 90.335938 227.378906 89.234375 224.296875 89.011719 C 223.195312 89.011719 221.871094 89.675781 220.769531 89.675781 C 213.941406 89.894531 207.109375 90.117188 200.277344 90.335938 C 196.535156 90.335938 192.789062 90.554688 188.820312 90.554688 C 185.296875 90.554688 181.769531 90.777344 178.027344 90.996094 C 175.601562 90.996094 172.957031 90.777344 170.535156 90.996094 C 156.652344 91.878906 142.550781 92.980469 128.671875 94.082031 C 123.382812 94.523438 118.097656 95.402344 112.808594 96.0625 C 110.382812 96.285156 107.960938 96.503906 104.875 96.726562 C 110.605469 90.777344 115.671875 85.488281 120.960938 80.199219 C 121.839844 79.320312 122.941406 78.4375 124.042969 77.996094 C 131.09375 75.351562 135.503906 69.625 140.570312 64.558594 C 141.230469 63.894531 142.113281 63.015625 142.550781 62.132812 C 146.960938 53.539062 152.6875 48.253906 164.367188 41.640625 C 165.027344 41.421875 165.46875 40.980469 165.90625 40.539062 C 167.007812 39.4375 168.109375 38.335938 169.433594 37.015625 C 168.773438 34.8125 169.433594 32.828125 171.414062 31.507812 C 179.789062 26.21875 182.210938 17.40625 185.515625 9.035156 C 186.617188 6.390625 187.5 3.746094 188.601562 0.882812 C 181.109375 0 177.363281 1.320312 172.515625 5.949219 C 171.414062 7.050781 169.875 7.269531 168.773438 8.152344 C 166.789062 9.695312 164.144531 10.355469 163.925781 13.441406 C 163.703125 14.761719 161.722656 15.863281 160.398438 16.746094 C 151.144531 22.472656 141.890625 27.980469 131.757812 33.929688 C 132.417969 31.949219 132.636719 31.066406 132.859375 29.964844 C 128.671875 30.625 128.230469 33.929688 127.351562 36.355469 C 126.027344 36.132812 124.707031 35.253906 124.042969 35.695312 C 120.960938 37.015625 118.097656 38.777344 115.230469 40.539062 C 113.910156 41.203125 112.808594 42.304688 111.265625 42.523438 C 107.078125 43.40625 103.554688 44.507812 101.792969 49.355469 C 101.128906 51.335938 98.707031 50.894531 96.722656 50.015625 C 93.417969 48.253906 91.4375 49.792969 90.113281 52.660156 C 88.792969 55.082031 88.792969 58.828125 83.945312 56.40625 C 82.621094 55.742188 79.316406 58.386719 77.335938 59.710938 C 74.03125 62.132812 70.285156 63.015625 66.757812 64.335938 C 61.25 66.539062 55.960938 69.183594 50.894531 72.046875 C 40.761719 77.554688 30.625 83.285156 20.710938 89.234375 C 17.183594 91.4375 14.101562 94.523438 10.796875 97.164062 C 11.457031 99.367188 12.117188 101.351562 13.21875 104.4375 C 10.132812 103.777344 7.929688 103.335938 5.285156 102.894531 C 3.746094 104.878906 1.980469 107.300781 0.21875 109.726562 C 4.625 116.113281 6.828125 123.605469 14.101562 127.570312 C 14.539062 127.792969 15.203125 128.234375 15.421875 128.894531 C 22.03125 141.671875 34.8125 144.976562 46.929688 149.382812 C 50.234375 150.707031 53.757812 151.585938 57.503906 152.027344 C 71.605469 154.011719 83.503906 160.839844 94.960938 168.554688 C 99.148438 171.417969 102.230469 175.601562 105.757812 179.347656 C 107.300781 180.890625 108.621094 182.875 110.824219 185.519531 C 111.484375 178.910156 105.976562 176.484375 104.65625 171.859375 C 107.960938 172.738281 108.621094 175.382812 110.164062 177.144531 C 114.128906 181.550781 117.875 186.179688 121.839844 190.585938 C 122.722656 191.46875 124.042969 193.007812 124.925781 192.789062 C 129.773438 191.46875 132.195312 195.433594 135.28125 197.855469 C 134.621094 199.621094 133.960938 201.382812 133.296875 202.925781 C 138.808594 209.753906 145.417969 213.5 155.113281 210.855469 C 154.890625 209.976562 154.890625 208.433594 154.671875 206.671875 C 154.671875 206.671875 154.890625 206.007812 155.113281 206.007812 C 164.804688 201.160156 165.6875 188.164062 159.957031 181.113281 C 157.535156 178.246094 155.332031 175.164062 152.90625 172.296875 C 152.6875 172.078125 151.367188 172.296875 150.703125 172.519531 C 149.824219 173.839844 148.941406 175.164062 147.621094 177.144531 C 144.09375 169.65625 139.46875 164.144531 133.738281 159.300781 C 130.65625 156.875 127.351562 153.570312 128.011719 148.503906 C 127.570312 147.621094 126.910156 146.519531 126.46875 145.636719 C 125.144531 144.316406 123.605469 143.875 122.0625 143.214844 Z M 265.71875 109.285156 C 266.15625 106.859375 267.039062 105.316406 270.125 107.300781 C 268.359375 108.183594 267.039062 108.621094 265.71875 109.285156 C 268.140625 109.945312 270.785156 110.605469 273.429688 111.046875 C 275.851562 111.488281 278.054688 111.707031 280.480469 112.148438 C 280.480469 112.589844 280.480469 113.03125 280.480469 113.25 C 273.871094 113.25 267.257812 113.25 260.429688 113.25 C 260.210938 112.808594 260.210938 112.367188 259.988281 111.929688 C 261.972656 111.046875 263.734375 110.164062 265.71875 109.285156 Z M 137.707031 191.90625 C 137.484375 192.128906 137.265625 192.347656 137.042969 192.570312 C 134.839844 191.027344 132.636719 189.265625 130.214844 187.941406 C 125.144531 184.855469 122.722656 180.671875 122.941406 174.722656 C 122.941406 170.757812 121.402344 167.230469 118.757812 164.367188 C 115.671875 161.0625 111.925781 158.199219 108.621094 154.890625 C 105.097656 151.585938 101.792969 148.28125 98.265625 144.757812 C 101.570312 145.417969 104.433594 145.859375 107.960938 146.738281 C 107.300781 150.046875 109.28125 150.925781 112.148438 151.367188 C 113.25 151.585938 114.570312 152.25 115.453125 153.128906 C 121.839844 158.859375 129.992188 163.265625 132.859375 172.296875 C 133.078125 172.738281 133.519531 173.398438 134.179688 173.621094 C 141.011719 176.042969 139.910156 181.332031 140.128906 187.5 C 138.144531 186.621094 136.824219 186.179688 135.722656 185.738281 C 134.398438 185.078125 133.296875 184.195312 131.976562 183.316406 C 131.757812 183.753906 131.535156 183.976562 131.316406 184.417969 C 133.519531 187.0625 135.503906 189.484375 137.707031 191.90625 Z M 63.894531 123.164062 C 61.691406 116.996094 61.472656 116.996094 56.183594 120.519531 C 55.300781 118.757812 54.421875 117.214844 53.097656 114.792969 C 56.84375 115.453125 59.269531 115.894531 61.691406 116.554688 C 64.554688 113.46875 66.316406 113.25 68.742188 115.671875 C 70.503906 117.4375 72.046875 119.640625 74.25 122.0625 C 70.503906 121.84375 66.980469 117.214844 63.894531 123.164062 Z M 117.65625 173.839844 C 113.027344 169.214844 108.84375 164.808594 103.996094 159.738281 C 111.707031 160.839844 117.433594 166.789062 117.65625 173.839844 Z M 124.265625 69.183594 C 126.25 67.199219 128.011719 65.21875 130.65625 62.355469 C 130.433594 67.421875 126.910156 68.082031 124.265625 69.183594 Z M 261.3125 107.082031 C 261.3125 104.214844 260.648438 101.574219 264.175781 101.132812 C 264.175781 104.65625 264.175781 104.65625 261.3125 107.082031 Z M 88.570312 134.84375 C 88.792969 134.402344 89.011719 134.179688 89.011719 133.742188 C 91.4375 134.84375 94.078125 135.945312 96.503906 137.046875 C 96.28125 137.484375 96.0625 137.925781 96.0625 138.148438 C 93.640625 137.046875 91.214844 135.945312 88.570312 134.84375 Z M 147.179688 179.789062 C 148.0625 179.347656 148.5 178.6875 148.941406 178.910156 C 149.382812 178.910156 150.042969 179.570312 150.042969 180.011719 C 150.042969 180.449219 149.382812 180.890625 149.164062 181.332031 C 148.722656 180.890625 148.0625 180.449219 147.179688 179.789062 Z M 247.429688 119.199219 C 247.429688 119.640625 247.429688 119.859375 247.429688 120.300781 C 246.328125 120.300781 245.226562 120.300781 244.34375 120.300781 C 244.34375 120.082031 244.34375 119.640625 244.34375 119.417969 C 245.445312 119.199219 246.328125 119.199219 247.429688 119.199219 Z M 210.195312 98.488281 C 210.195312 98.929688 210.195312 99.589844 209.972656 100.03125 C 209.09375 99.808594 207.992188 99.589844 207.109375 99.589844 C 207.109375 99.367188 207.109375 98.929688 207.328125 98.707031 C 208.210938 98.488281 209.3125 98.488281 210.195312 98.488281 Z M 165.6875 32.167969 C 165.90625 32.386719 166.128906 32.609375 166.570312 32.609375 C 165.90625 33.492188 165.46875 34.152344 165.027344 35.03125 C 164.804688 34.8125 164.585938 34.59375 164.144531 34.371094 C 164.585938 33.929688 165.246094 33.050781 165.6875 32.167969 Z M 165.6875 32.167969 " fill-opacity="1" fill-rule="evenodd"/></g><g clip-path="url(#6575a408e8)"><path fill="#000000" d="M 297.003906 124.265625 C 296.785156 126.46875 296.785156 127.128906 296.785156 128.894531 C 301.191406 127.792969 305.15625 126.910156 309.785156 125.808594 C 309.5625 127.570312 309.34375 129.113281 309.34375 129.996094 C 312.207031 130.4375 314.628906 130.65625 317.9375 131.316406 C 318.597656 130.4375 319.699219 129.113281 321.679688 126.910156 C 321.242188 129.335938 321.242188 130.4375 321.019531 131.539062 C 324.546875 126.910156 330.054688 127.351562 334.902344 126.027344 C 343.714844 123.605469 352.085938 119.859375 358.695312 113.03125 C 359.796875 111.929688 361.339844 110.605469 362.882812 110.164062 C 367.730469 108.84375 370.152344 104.878906 374.78125 100.910156 C 371.253906 100.03125 369.050781 99.367188 366.628906 99.148438 C 359.578125 98.265625 352.308594 100.472656 345.476562 97.386719 C 339.96875 99.808594 334.460938 98.265625 328.953125 98.046875 C 325.425781 98.046875 321.460938 99.808594 319.039062 103.335938 C 318.597656 104.214844 317.496094 104.878906 316.613281 105.097656 C 311.988281 106.199219 311.105469 107.300781 311.988281 111.265625 C 312.425781 113.46875 313.089844 115.453125 313.75 118.097656 C 315.292969 118.097656 317.273438 118.097656 319.039062 118.097656 C 318.816406 118.539062 318.816406 119.199219 318.597656 119.199219 C 311.988281 121.402344 305.375 124.046875 298.765625 119.640625 C 298.546875 119.417969 298.328125 119.417969 298.105469 119.417969 C 290.613281 121.621094 283.34375 123.605469 275.410156 125.808594 C 278.277344 129.335938 281.140625 129.554688 284.664062 128.230469 C 288.191406 126.691406 292.378906 125.589844 297.003906 124.265625 Z M 297.003906 124.265625 " fill-opacity="1" fill-rule="evenodd"/></g><path fill="#000000" d="M 227.160156 129.113281 C 221.429688 133.519531 217.683594 138.148438 215.261719 144.757812 C 219.667969 144.535156 222.753906 143.433594 224.957031 140.351562 C 225.398438 139.691406 226.277344 138.589844 226.277344 138.367188 C 223.855469 135.503906 227.601562 133.300781 227.160156 129.113281 Z M 227.160156 129.113281 " fill-opacity="1" fill-rule="evenodd"/><path fill="#000000" d="M 128.011719 147.839844 C 129.113281 148.722656 130.433594 149.605469 131.316406 150.707031 C 135.0625 156.214844 141.011719 158.859375 146.078125 163.042969 C 145.417969 157.976562 141.230469 155.113281 137.925781 152.027344 C 135.722656 150.046875 132.636719 148.722656 130.875 146.078125 C 130.214844 145.199219 128.230469 145.199219 126.6875 144.976562 C 126.910156 145.859375 127.351562 146.960938 128.011719 147.839844 Z M 128.011719 147.839844 " fill-opacity="1" fill-rule="evenodd"/><path fill="#000000" d="M 256.683594 143.433594 C 262.191406 145.199219 265.71875 141.671875 271.003906 139.027344 C 264.394531 137.265625 260.871094 141.453125 256.683594 143.433594 Z M 256.683594 143.433594 " fill-opacity="1" fill-rule="evenodd"/><path fill="#000000" d="M 312.207031 100.910156 C 313.308594 99.367188 314.628906 97.828125 316.394531 95.84375 C 311.988281 95.402344 311.105469 97.386719 310.664062 99.808594 C 311.105469 100.25 311.765625 100.691406 312.207031 100.910156 Z M 312.207031 100.910156 " fill-opacity="1" fill-rule="evenodd"/><path fill="#000000" d="M 169.433594 36.796875 C 168.332031 37.898438 167.007812 39 165.90625 40.320312 C 167.230469 40.101562 168.332031 40.101562 169.652344 39.878906 C 169.652344 38.777344 169.652344 37.675781 169.433594 36.796875 Z M 169.433594 36.796875 " fill-opacity="1" fill-rule="evenodd"/><path fill="#000000" d="M 330.714844 134.402344 C 328.953125 134.84375 327.191406 135.0625 325.648438 135.503906 C 327.851562 138.148438 329.394531 136.824219 331.15625 135.722656 C 330.933594 135.28125 330.714844 134.84375 330.714844 134.402344 Z M 330.714844 134.402344 " fill-opacity="1" fill-rule="evenodd"/><path fill="#000000" d="M 122.0625 143.214844 C 123.605469 143.875 124.925781 144.316406 126.46875 144.976562 C 125.808594 143.214844 125.367188 141.453125 124.265625 138.808594 C 123.382812 140.792969 122.722656 142.113281 122.0625 143.214844 Z M 122.0625 143.214844 " fill-opacity="1" fill-rule="evenodd"/><path fill="#000000" d="M 138.144531 19.609375 C 139.910156 21.152344 140.570312 21.8125 140.570312 21.8125 C 141.230469 21.371094 142.113281 20.710938 142.550781 19.828125 C 142.773438 19.609375 141.671875 18.289062 141.230469 18.289062 C 140.347656 18.507812 139.46875 19.167969 138.144531 19.609375 Z M 138.144531 19.609375 " fill-opacity="1" fill-rule="evenodd"/><path fill="#000000" d="M 109.945312 40.539062 C 111.484375 39.878906 112.808594 39.4375 114.570312 38.777344 C 111.484375 37.898438 111.484375 37.898438 109.945312 40.539062 Z M 109.945312 40.539062 " fill-opacity="1" fill-rule="evenodd"/><path fill="#000000" d="M 311.546875 92.757812 C 310.222656 92.097656 308.902344 91.4375 307.582031 90.777344 C 307.359375 91.21875 307.140625 91.4375 306.917969 91.878906 C 308.019531 92.539062 309.34375 93.421875 310.445312 94.082031 C 310.886719 93.640625 311.324219 93.199219 311.546875 92.757812 Z M 311.546875 92.757812 " fill-opacity="1" fill-rule="evenodd"/><path fill="#000000" d="M 102.011719 135.945312 C 103.332031 136.824219 104.65625 137.707031 106.199219 138.589844 C 105.976562 135.28125 105.316406 134.84375 102.011719 135.945312 Z M 102.011719 135.945312 " fill-opacity="1" fill-rule="evenodd"/><path fill="#000000" d="M 284.003906 92.539062 C 285.105469 92.097656 286.207031 91.878906 287.308594 91.4375 C 287.089844 90.996094 287.089844 90.777344 286.867188 90.335938 C 285.765625 90.777344 284.664062 90.996094 283.5625 91.4375 C 283.785156 91.878906 284.003906 92.097656 284.003906 92.539062 Z M 284.003906 92.539062 " fill-opacity="1" fill-rule="evenodd"/><path fill="#000000" d="M 144.753906 22.914062 C 145.859375 22.253906 146.960938 21.8125 148.0625 21.152344 C 147.839844 20.929688 147.839844 20.492188 147.621094 20.269531 C 146.519531 20.929688 145.417969 21.371094 144.316406 22.03125 C 144.535156 22.472656 144.753906 22.695312 144.753906 22.914062 Z M 144.753906 22.914062 " fill-opacity="1" fill-rule="evenodd"/><path fill="#000000" d="M 148.0625 166.570312 C 148.5 168.554688 147.839844 171.195312 150.703125 171.859375 C 149.824219 170.09375 148.941406 168.332031 148.0625 166.570312 Z M 148.0625 166.570312 " fill-opacity="1" fill-rule="evenodd"/><path fill="#000000" d="M 293.699219 104.214844 C 294.800781 103.777344 296.121094 103.113281 297.664062 102.453125 C 294.582031 100.472656 294.359375 102.675781 293.699219 104.214844 Z M 293.699219 104.214844 " fill-opacity="1" fill-rule="evenodd"/></svg>