<svg xmlns="http://www.w3.org/2000/svg" xmlns:xlink="http://www.w3.org/1999/xlink" width="500" zoomAndPan="magnify" viewBox="0 0 375 213.75" height="285" preserveAspectRatio="xMidYMid meet" version="1.0"><defs><clipPath id="16eae5027c"><path d="M 64 0 L 374.78125 0 L 374.78125 212 L 64 212 Z M 64 0 " clip-rule="nonzero"/></clipPath><clipPath id="5f728ade2b"><path d="M 0.21875 97 L 100 97 L 100 132 L 0.21875 132 Z M 0.21875 97 " clip-rule="nonzero"/></clipPath></defs><g clip-path="url(#16eae5027c)"><path fill="#000000" d="M 252.9375 143.214844 C 255.140625 142.773438 257.34375 142.332031 260.871094 141.671875 C 258.886719 144.316406 257.785156 145.859375 256.023438 148.0625 C 260.648438 146.300781 262.851562 140.128906 268.582031 143.433594 C 268.800781 141.453125 268.800781 139.910156 268.800781 138.589844 C 270.125 137.707031 271.445312 136.824219 272.988281 135.945312 C 275.851562 133.742188 278.71875 131.539062 281.800781 129.335938 C 276.953125 129.335938 271.003906 126.027344 269.242188 133.078125 C 260.648438 133.078125 252.71875 133.078125 244.785156 133.078125 C 244.34375 134.621094 244.125 135.503906 243.683594 137.046875 C 242.140625 135.503906 241.039062 134.402344 240.160156 133.300781 C 238.175781 133.519531 236.191406 134.179688 234.210938 134.179688 C 229.363281 134.402344 224.515625 133.960938 219.667969 134.621094 C 217.246094 135.0625 214.378906 136.824219 213.277344 138.808594 C 211.074219 142.773438 208.652344 141.453125 206.667969 139.691406 C 200.5 133.742188 193.667969 133.300781 186.179688 136.382812 C 184.855469 137.046875 183.09375 136.605469 180.667969 136.824219 C 183.3125 139.691406 185.515625 142.332031 188.601562 145.636719 C 186.617188 145.859375 185.515625 146.078125 184.414062 146.078125 C 178.90625 145.417969 173.398438 144.535156 167.890625 144.316406 C 163.925781 144.097656 161.28125 142.113281 160.621094 138.367188 C 159.957031 135.0625 158.195312 133.300781 155.332031 131.757812 C 153.789062 131.097656 152.6875 129.554688 151.367188 128.671875 C 147.839844 126.691406 144.316406 125.367188 139.6875 125.589844 C 132.859375 125.589844 126.25 128.894531 119.417969 127.570312 C 111.707031 126.027344 103.996094 125.808594 97.605469 120.300781 C 93.640625 116.996094 88.792969 114.792969 84.386719 112.148438 C 82.621094 111.046875 80.640625 110.605469 78.214844 109.726562 C 77.113281 111.707031 76.234375 113.25 75.132812 115.234375 C 74.691406 115.234375 74.25 115.234375 73.589844 115.234375 C 71.605469 114.792969 69.402344 114.570312 67.417969 113.691406 C 66.316406 113.25 64.996094 111.929688 64.777344 110.828125 C 64.554688 109.945312 65.878906 108.621094 66.539062 107.519531 C 67.199219 106.640625 67.640625 105.757812 68.742188 103.996094 C 70.726562 104.4375 73.808594 105.097656 76.671875 105.980469 C 78.878906 106.640625 80.417969 106.859375 81.300781 104.214844 C 82.183594 104.878906 83.0625 105.316406 84.164062 106.199219 C 85.488281 103.554688 86.808594 101.351562 88.351562 98.488281 C 90.554688 100.472656 92.097656 101.792969 93.859375 103.335938 C 96.503906 101.574219 99.367188 99.589844 102.453125 97.386719 C 101.570312 96.945312 100.46875 96.0625 98.707031 94.960938 C 102.671875 91.21875 107.078125 89.234375 112.367188 89.894531 C 115.230469 90.335938 118.316406 89.894531 121.179688 90.113281 C 124.265625 90.335938 125.585938 92.097656 124.925781 96.0625 C 119.859375 92.757812 114.789062 93.859375 109.722656 94.960938 C 109.28125 94.960938 109.0625 96.726562 108.621094 98.265625 C 109.945312 98.488281 111.046875 98.929688 111.925781 98.707031 C 116.113281 97.386719 119.417969 98.265625 122.28125 101.792969 C 117.214844 104.4375 118.757812 107.960938 120.960938 111.707031 C 119.859375 111.929688 118.976562 112.148438 117.65625 112.367188 C 118.976562 114.351562 120.078125 115.894531 121.179688 117.214844 C 121.621094 116.996094 122.0625 116.996094 122.503906 116.773438 C 122.28125 113.25 122.0625 109.726562 121.621094 106.417969 C 122.0625 106.417969 122.941406 106.199219 123.824219 106.199219 C 123.164062 104.65625 122.722656 103.335938 122.28125 102.011719 C 123.382812 98.488281 126.25 97.386719 129.332031 96.503906 C 129.773438 94.523438 130.214844 92.539062 130.875 90.777344 C 131.316406 90.777344 131.757812 90.777344 131.976562 90.777344 C 132.195312 92.980469 132.636719 94.960938 132.859375 97.828125 C 135.28125 97.605469 137.484375 97.386719 139.910156 97.164062 C 139.910156 96.726562 139.910156 96.0625 139.910156 95.625 C 137.925781 95.402344 135.941406 94.960938 133.738281 94.523438 C 135.722656 91.4375 137.925781 89.894531 141.449219 90.117188 C 144.535156 90.335938 147.621094 89.234375 150.703125 89.011719 C 151.804688 89.011719 153.128906 89.675781 154.230469 89.675781 C 161.058594 89.894531 167.890625 90.117188 174.722656 90.335938 C 178.464844 90.335938 182.210938 90.554688 186.179688 90.554688 C 189.703125 90.554688 193.230469 90.777344 196.972656 90.996094 C 199.398438 90.996094 202.042969 90.777344 204.464844 90.996094 C 218.347656 91.878906 232.449219 92.980469 246.328125 94.082031 C 251.617188 94.523438 256.902344 95.402344 262.191406 96.0625 C 264.617188 96.285156 267.039062 96.503906 270.125 96.726562 C 264.394531 90.777344 259.328125 85.488281 254.039062 80.199219 C 253.160156 79.320312 252.058594 78.4375 250.957031 77.996094 C 243.90625 75.351562 239.496094 69.625 234.429688 64.558594 C 233.769531 63.894531 232.886719 63.015625 232.449219 62.132812 C 228.039062 53.539062 222.3125 48.253906 210.632812 41.640625 C 209.972656 41.421875 209.53125 40.980469 209.09375 40.539062 C 207.992188 39.4375 206.890625 38.335938 205.566406 37.015625 C 206.226562 34.8125 205.566406 32.828125 203.585938 31.507812 C 195.210938 26.21875 192.789062 17.40625 189.484375 9.035156 C 188.382812 6.390625 187.5 3.746094 186.398438 0.882812 C 193.890625 0 197.636719 1.320312 202.484375 5.949219 C 203.585938 7.050781 205.125 7.269531 206.226562 8.152344 C 208.210938 9.695312 210.855469 10.355469 211.074219 13.441406 C 211.296875 14.761719 213.277344 15.863281 214.601562 16.746094 C 223.855469 22.472656 233.109375 27.980469 243.242188 33.929688 C 242.582031 31.949219 242.363281 31.066406 242.140625 29.964844 C 246.328125 30.625 246.769531 33.929688 247.648438 36.355469 C 248.972656 36.132812 250.292969 35.253906 250.957031 35.695312 C 254.039062 37.015625 256.902344 38.777344 259.769531 40.539062 C 261.089844 41.203125 262.191406 42.304688 263.734375 42.523438 C 267.921875 43.40625 271.445312 44.507812 273.207031 49.355469 C 273.871094 51.335938 276.292969 50.894531 278.277344 50.015625 C 281.582031 48.253906 283.5625 49.792969 284.886719 52.660156 C 286.207031 55.082031 286.207031 58.828125 291.054688 56.40625 C 292.378906 55.742188 295.683594 58.386719 297.664062 59.710938 C 300.96875 62.132812 304.714844 63.015625 308.242188 64.335938 C 313.75 66.539062 319.039062 69.183594 324.105469 72.046875 C 334.238281 77.554688 344.375 83.285156 354.289062 89.234375 C 357.816406 91.4375 360.898438 94.523438 364.203125 97.164062 C 363.542969 99.367188 362.882812 101.351562 361.78125 104.4375 C 364.867188 103.777344 367.070312 103.335938 369.714844 102.894531 C 371.253906 104.878906 373.019531 107.300781 374.78125 109.726562 C 370.375 116.113281 368.171875 123.605469 360.898438 127.570312 C 360.460938 127.792969 359.796875 128.234375 359.578125 128.894531 C 352.96875 141.671875 340.1875 144.976562 328.070312 149.382812 C 324.765625 150.707031 321.242188 151.585938 317.496094 152.027344 C 303.394531 154.011719 291.496094 160.839844 280.039062 168.554688 C 275.851562 171.417969 272.769531 175.601562 269.242188 179.347656 C 267.699219 180.890625 266.378906 182.875 264.175781 185.519531 C 263.515625 178.910156 269.023438 176.484375 270.34375 171.859375 C 267.039062 172.738281 266.378906 175.382812 264.835938 177.144531 C 260.871094 181.550781 257.125 186.179688 253.160156 190.585938 C 252.277344 191.46875 250.957031 193.007812 250.074219 192.789062 C 245.226562 191.46875 242.804688 195.433594 239.71875 197.855469 C 240.378906 199.621094 241.039062 201.382812 241.703125 202.925781 C 236.191406 209.753906 229.582031 213.5 219.886719 210.855469 C 220.109375 209.976562 220.109375 208.433594 220.328125 206.671875 C 220.328125 206.671875 220.109375 206.007812 219.886719 206.007812 C 210.195312 201.160156 209.3125 188.164062 215.042969 181.113281 C 217.464844 178.246094 219.667969 175.164062 222.09375 172.296875 C 222.3125 172.078125 223.632812 172.296875 224.296875 172.519531 C 225.175781 173.839844 226.058594 175.164062 227.378906 177.144531 C 230.90625 169.65625 235.53125 164.144531 241.261719 159.300781 C 244.34375 156.875 247.648438 153.570312 246.988281 148.503906 C 247.429688 147.621094 248.089844 146.519531 248.53125 145.636719 C 249.855469 144.316406 251.394531 143.875 252.9375 143.214844 Z M 109.28125 109.285156 C 108.84375 106.859375 107.960938 105.316406 104.875 107.300781 C 106.640625 108.183594 107.960938 108.621094 109.28125 109.285156 C 106.859375 109.945312 104.214844 110.605469 101.570312 111.046875 C 99.148438 111.488281 96.945312 111.707031 94.519531 112.148438 C 94.519531 112.589844 94.519531 113.03125 94.519531 113.25 C 101.128906 113.25 107.742188 113.25 114.570312 113.25 C 114.789062 112.808594 114.789062 112.367188 115.011719 111.929688 C 113.027344 111.046875 111.265625 110.164062 109.28125 109.285156 Z M 237.292969 191.90625 C 237.515625 192.128906 237.734375 192.347656 237.957031 192.570312 C 240.160156 191.027344 242.363281 189.265625 244.785156 187.941406 C 249.855469 184.855469 252.277344 180.671875 252.058594 174.722656 C 252.058594 170.757812 253.597656 167.230469 256.242188 164.367188 C 259.328125 161.0625 263.074219 158.199219 266.378906 154.890625 C 269.902344 151.585938 273.207031 148.28125 276.734375 144.757812 C 273.429688 145.417969 270.566406 145.859375 267.039062 146.738281 C 267.699219 150.046875 265.71875 150.925781 262.851562 151.367188 C 261.75 151.585938 260.429688 152.25 259.546875 153.128906 C 253.160156 158.859375 245.007812 163.265625 242.140625 172.296875 C 241.921875 172.738281 241.480469 173.398438 240.820312 173.621094 C 233.988281 176.042969 235.089844 181.332031 234.871094 187.5 C 236.855469 186.621094 238.175781 186.179688 239.277344 185.738281 C 240.601562 185.078125 241.703125 184.195312 243.023438 183.316406 C 243.242188 183.753906 243.464844 183.976562 243.683594 184.417969 C 241.480469 187.0625 239.496094 189.484375 237.292969 191.90625 Z M 311.105469 123.164062 C 313.308594 116.996094 313.527344 116.996094 318.816406 120.519531 C 319.699219 118.757812 320.578125 117.214844 321.902344 114.792969 C 318.15625 115.453125 315.730469 115.894531 313.308594 116.554688 C 310.445312 113.46875 308.683594 113.25 306.257812 115.671875 C 304.496094 117.4375 302.953125 119.640625 300.75 122.0625 C 304.496094 121.84375 308.019531 117.214844 311.105469 123.164062 Z M 257.34375 173.839844 C 261.972656 169.214844 266.15625 164.808594 271.003906 159.738281 C 263.292969 160.839844 257.566406 166.789062 257.34375 173.839844 Z M 250.734375 69.183594 C 248.75 67.199219 246.988281 65.21875 244.34375 62.355469 C 244.566406 67.421875 248.089844 68.082031 250.734375 69.183594 Z M 113.6875 107.082031 C 113.6875 104.214844 114.351562 101.574219 110.824219 101.132812 C 110.824219 104.65625 110.824219 104.65625 113.6875 107.082031 Z M 286.429688 134.84375 C 286.207031 134.402344 285.988281 134.179688 285.988281 133.742188 C 283.5625 134.84375 280.921875 135.945312 278.496094 137.046875 C 278.71875 137.484375 278.9375 137.925781 278.9375 138.148438 C 281.359375 137.046875 283.785156 135.945312 286.429688 134.84375 Z M 227.820312 179.789062 C 226.9375 179.347656 226.5 178.6875 226.058594 178.910156 C 225.617188 178.910156 224.957031 179.570312 224.957031 180.011719 C 224.957031 180.449219 225.617188 180.890625 225.835938 181.332031 C 226.277344 180.890625 226.9375 180.449219 227.820312 179.789062 Z M 127.570312 119.199219 C 127.570312 119.640625 127.570312 119.859375 127.570312 120.300781 C 128.671875 120.300781 129.773438 120.300781 130.65625 120.300781 C 130.65625 120.082031 130.65625 119.640625 130.65625 119.417969 C 129.554688 119.199219 128.671875 119.199219 127.570312 119.199219 Z M 164.804688 98.488281 C 164.804688 98.929688 164.804688 99.589844 165.027344 100.03125 C 165.90625 99.808594 167.007812 99.589844 167.890625 99.589844 C 167.890625 99.367188 167.890625 98.929688 167.671875 98.707031 C 166.789062 98.488281 165.6875 98.488281 164.804688 98.488281 Z M 209.3125 32.167969 C 209.09375 32.386719 208.871094 32.609375 208.429688 32.609375 C 209.09375 33.492188 209.53125 34.152344 209.972656 35.03125 C 210.195312 34.8125 210.414062 34.59375 210.855469 34.371094 C 210.414062 33.929688 209.753906 33.050781 209.3125 32.167969 Z M 209.3125 32.167969 " fill-opacity="1" fill-rule="evenodd"/></g><g clip-path="url(#5f728ade2b)"><path fill="#000000" d="M 77.996094 124.265625 C 78.214844 126.46875 78.214844 127.128906 78.214844 128.894531 C 73.808594 127.792969 69.84375 126.910156 65.214844 125.808594 C 65.4375 127.570312 65.65625 129.113281 65.65625 129.996094 C 62.792969 130.4375 60.371094 130.65625 57.0625 131.316406 C 56.402344 130.4375 55.300781 129.113281 53.320312 126.910156 C 53.757812 129.335938 53.757812 130.4375 53.980469 131.539062 C 50.453125 126.910156 44.945312 127.351562 40.097656 126.027344 C 31.285156 123.605469 22.914062 119.859375 16.304688 113.03125 C 15.203125 111.929688 13.660156 110.605469 12.117188 110.164062 C 7.269531 108.84375 4.847656 104.878906 0.21875 100.910156 C 3.746094 100.03125 5.949219 99.367188 8.371094 99.148438 C 15.421875 98.265625 22.691406 100.472656 29.523438 97.386719 C 35.03125 99.808594 40.539062 98.265625 46.046875 98.046875 C 49.574219 98.046875 53.539062 99.808594 55.960938 103.335938 C 56.402344 104.214844 57.503906 104.878906 58.386719 105.097656 C 63.011719 106.199219 63.894531 107.300781 63.011719 111.265625 C 62.574219 113.46875 61.910156 115.453125 61.25 118.097656 C 59.707031 118.097656 57.726562 118.097656 55.960938 118.097656 C 56.183594 118.539062 56.183594 119.199219 56.402344 119.199219 C 63.011719 121.402344 69.625 124.046875 76.234375 119.640625 C 76.453125 119.417969 76.671875 119.417969 76.894531 119.417969 C 84.386719 121.621094 91.65625 123.605469 99.589844 125.808594 C 96.722656 129.335938 93.859375 129.554688 90.335938 128.230469 C 86.808594 126.691406 82.621094 125.589844 77.996094 124.265625 Z M 77.996094 124.265625 " fill-opacity="1" fill-rule="evenodd"/></g><path fill="#000000" d="M 147.839844 129.113281 C 153.570312 133.519531 157.316406 138.148438 159.738281 144.757812 C 155.332031 144.535156 152.246094 143.433594 150.042969 140.351562 C 149.601562 139.691406 148.722656 138.589844 148.722656 138.367188 C 151.144531 135.503906 147.398438 133.300781 147.839844 129.113281 Z M 147.839844 129.113281 " fill-opacity="1" fill-rule="evenodd"/><path fill="#000000" d="M 246.988281 147.839844 C 245.886719 148.722656 244.566406 149.605469 243.683594 150.707031 C 239.9375 156.214844 233.988281 158.859375 228.921875 163.042969 C 229.582031 157.976562 233.769531 155.113281 237.074219 152.027344 C 239.277344 150.046875 242.363281 148.722656 244.125 146.078125 C 244.785156 145.199219 246.769531 145.199219 248.3125 144.976562 C 248.089844 145.859375 247.648438 146.960938 246.988281 147.839844 Z M 246.988281 147.839844 " fill-opacity="1" fill-rule="evenodd"/><path fill="#000000" d="M 118.316406 143.433594 C 112.808594 145.199219 109.28125 141.671875 103.996094 139.027344 C 110.605469 137.265625 114.128906 141.453125 118.316406 143.433594 Z M 118.316406 143.433594 " fill-opacity="1" fill-rule="evenodd"/><path fill="#000000" d="M 62.792969 100.910156 C 61.691406 99.367188 60.371094 97.828125 58.605469 95.84375 C 63.011719 95.402344 63.894531 97.386719 64.335938 99.808594 C 63.894531 100.25 63.234375 100.691406 62.792969 100.910156 Z M 62.792969 100.910156 " fill-opacity="1" fill-rule="evenodd"/><path fill="#000000" d="M 205.566406 36.796875 C 206.667969 37.898438 207.992188 39 209.09375 40.320312 C 207.769531 40.101562 206.667969 40.101562 205.347656 39.878906 C 205.347656 38.777344 205.347656 37.675781 205.566406 36.796875 Z M 205.566406 36.796875 " fill-opacity="1" fill-rule="evenodd"/><path fill="#000000" d="M 44.285156 134.402344 C 46.046875 134.84375 47.808594 135.0625 49.351562 135.503906 C 47.148438 138.148438 45.605469 136.824219 43.84375 135.722656 C 44.066406 135.28125 44.285156 134.84375 44.285156 134.402344 Z M 44.285156 134.402344 " fill-opacity="1" fill-rule="evenodd"/><path fill="#000000" d="M 252.9375 143.214844 C 251.394531 143.875 250.074219 144.316406 248.53125 144.976562 C 249.191406 143.214844 249.632812 141.453125 250.734375 138.808594 C 251.617188 140.792969 252.277344 142.113281 252.9375 143.214844 Z M 252.9375 143.214844 " fill-opacity="1" fill-rule="evenodd"/><path fill="#000000" d="M 236.855469 19.609375 C 235.089844 21.152344 234.429688 21.8125 234.429688 21.8125 C 233.769531 21.371094 232.886719 20.710938 232.449219 19.828125 C 232.226562 19.609375 233.328125 18.289062 233.769531 18.289062 C 234.652344 18.507812 235.53125 19.167969 236.855469 19.609375 Z M 236.855469 19.609375 " fill-opacity="1" fill-rule="evenodd"/><path fill="#000000" d="M 265.054688 40.539062 C 263.515625 39.878906 262.191406 39.4375 260.429688 38.777344 C 263.515625 37.898438 263.515625 37.898438 265.054688 40.539062 Z M 265.054688 40.539062 " fill-opacity="1" fill-rule="evenodd"/><path fill="#000000" d="M 63.453125 92.757812 C 64.777344 92.097656 66.097656 91.4375 67.417969 90.777344 C 67.640625 91.21875 67.859375 91.4375 68.082031 91.878906 C 66.980469 92.539062 65.65625 93.421875 64.554688 94.082031 C 64.113281 93.640625 63.675781 93.199219 63.453125 92.757812 Z M 63.453125 92.757812 " fill-opacity="1" fill-rule="evenodd"/><path fill="#000000" d="M 272.988281 135.945312 C 271.667969 136.824219 270.34375 137.707031 268.800781 138.589844 C 269.023438 135.28125 269.683594 134.84375 272.988281 135.945312 Z M 272.988281 135.945312 " fill-opacity="1" fill-rule="evenodd"/><path fill="#000000" d="M 90.996094 92.539062 C 89.894531 92.097656 88.792969 91.878906 87.691406 91.4375 C 87.910156 90.996094 87.910156 90.777344 88.132812 90.335938 C 89.234375 90.777344 90.335938 90.996094 91.4375 91.4375 C 91.214844 91.878906 90.996094 92.097656 90.996094 92.539062 Z M 90.996094 92.539062 " fill-opacity="1" fill-rule="evenodd"/><path fill="#000000" d="M 230.242188 22.914062 C 229.140625 22.253906 228.039062 21.8125 226.9375 21.152344 C 227.160156 20.929688 227.160156 20.492188 227.378906 20.269531 C 228.480469 20.929688 229.582031 21.371094 230.683594 22.03125 C 230.464844 22.472656 230.242188 22.695312 230.242188 22.914062 Z M 230.242188 22.914062 " fill-opacity="1" fill-rule="evenodd"/><path fill="#000000" d="M 226.9375 166.570312 C 226.5 168.554688 227.160156 171.195312 224.296875 171.859375 C 225.175781 170.09375 226.058594 168.332031 226.9375 166.570312 Z M 226.9375 166.570312 " fill-opacity="1" fill-rule="evenodd"/><path fill="#000000" d="M 81.300781 104.214844 C 80.199219 103.777344 78.878906 103.113281 77.335938 102.453125 C 80.417969 100.472656 80.640625 102.675781 81.300781 104.214844 Z M 81.300781 104.214844 " fill-opacity="1" fill-rule="evenodd"/></svg>