<svg xmlns="http://www.w3.org/2000/svg" xmlns:xlink="http://www.w3.org/1999/xlink" width="50" zoomAndPan="magnify" viewBox="0 0 37.5 30.75" height="41" preserveAspectRatio="xMidYMid meet" version="1.0"><defs><clipPath id="2d7a76e42a"><path d="M 0 0.078125 L 37.007812 0.078125 L 37.007812 30.425781 L 0 30.425781 Z M 0 0.078125 " clip-rule="nonzero"/></clipPath></defs><g clip-path="url(#2d7a76e42a)"><path fill="#ffffff" d="M 36.3125 9.722656 L 17.785156 9.722656 L 8.394531 0.332031 C 8.144531 0.078125 7.722656 0.09375 7.449219 0.363281 L 6.289062 1.527344 C 6.019531 1.796875 6.003906 2.21875 6.253906 2.46875 L 13.507812 9.722656 L 0.695312 9.722656 C 0.3125 9.722656 0.00390625 10.03125 0.00390625 10.414062 L 0.00390625 13.09375 C 0.00390625 13.476562 0.3125 13.785156 0.695312 13.785156 L 2.636719 13.785156 L 4.539062 27.1875 C 4.539062 27.1875 5.058594 30.472656 6.960938 30.472656 L 30.042969 30.472656 C 31.945312 30.472656 32.464844 27.1875 32.464844 27.1875 L 34.367188 13.785156 L 36.3125 13.785156 C 36.695312 13.785156 37.003906 13.476562 37.003906 13.09375 L 37.003906 10.414062 C 37.003906 10.03125 36.691406 9.722656 36.3125 9.722656 Z M 10.679688 25.890625 C 10.679688 26.222656 10.410156 26.492188 10.074219 26.492188 L 8.789062 26.492188 C 8.457031 26.492188 8.183594 26.222656 8.183594 25.890625 L 8.183594 19.160156 C 8.183594 18.828125 8.457031 18.554688 8.789062 18.554688 L 10.074219 18.554688 C 10.410156 18.554688 10.679688 18.828125 10.679688 19.160156 Z M 16.726562 25.890625 C 16.726562 26.222656 16.457031 26.492188 16.121094 26.492188 L 14.835938 26.492188 C 14.503906 26.492188 14.230469 26.222656 14.230469 25.890625 L 14.230469 19.160156 C 14.230469 18.828125 14.503906 18.554688 14.835938 18.554688 L 16.121094 18.554688 C 16.457031 18.554688 16.726562 18.828125 16.726562 19.160156 Z M 22.773438 25.890625 C 22.773438 26.222656 22.503906 26.492188 22.167969 26.492188 L 20.882812 26.492188 C 20.550781 26.492188 20.28125 26.222656 20.28125 25.890625 L 20.28125 19.160156 C 20.28125 18.828125 20.550781 18.554688 20.882812 18.554688 L 22.167969 18.554688 C 22.503906 18.554688 22.773438 18.828125 22.773438 19.160156 Z M 28.820312 25.890625 C 28.820312 26.222656 28.550781 26.492188 28.21875 26.492188 L 26.933594 26.492188 C 26.597656 26.492188 26.328125 26.222656 26.328125 25.890625 L 26.328125 19.160156 C 26.328125 18.828125 26.597656 18.554688 26.933594 18.554688 L 28.21875 18.554688 C 28.550781 18.554688 28.820312 18.828125 28.820312 19.160156 Z M 16.570312 11.195312 C 16.570312 10.90625 16.808594 10.667969 17.097656 10.667969 C 17.390625 10.667969 17.628906 10.90625 17.628906 11.195312 C 17.628906 11.488281 17.390625 11.726562 17.097656 11.726562 C 16.808594 11.726562 16.570312 11.488281 16.570312 11.195312 Z M 16.570312 11.195312 " fill-opacity="1" fill-rule="nonzero"/></g></svg>